HIERARCHY
ROOT Hips
{
  OFFSET 265.287 66.7526 -254.649
  CHANNELS 6 Xposition Yposition Zposition Zrotation Xrotation Yrotation
  JOINT LeftUpLeg
  {
    OFFSET 8.64259 1.95398 -2.38835
    CHANNELS 3 Zrotation Xrotation Yrotation
    JOINT LeftLeg
    {
      OFFSET 43.7702 0 0
      CHANNELS 3 Zrotation Xrotation Yrotation
      JOINT LeftFoot
      {
        OFFSET 40.6238 0 0
        CHANNELS 3 Zrotation Xrotation Yrotation
        JOINT LeftToeBase
        {
          OFFSET 12.7242 0 0
          CHANNELS 3 Zrotation Xrotation Yrotation
          End Site
          {
            OFFSET 0 0 0
          }
        }
      }
    }
  }
  JOINT RightUpLeg
  {
    OFFSET -8.2249 1.95398 -2.59336
    CHANNELS 3 Zrotation Xrotation Yrotation
    JOINT RightLeg
    {
      OFFSET 43.5653 0 0
      CHANNELS 3 Zrotation Xrotation Yrotation
      JOINT RightFoot
      {
        OFFSET 40.6238 0 0
        CHANNELS 3 Zrotation Xrotation Yrotation
        JOINT RightToeBase
        {
          OFFSET 12.7242 0 0
          CHANNELS 3 Zrotation Xrotation Yrotation
          End Site
          {
            OFFSET 0 0 0
          }
        }
      }
    }
  }
  JOINT Spine
  {
    OFFSET 0.165834 0.87714 6.61349
    CHANNELS 3 Zrotation Xrotation Yrotation
    JOINT Spine1
    {
      OFFSET 7.38963 1.71661e-005 0
      CHANNELS 3 Zrotation Xrotation Yrotation
      JOINT Spine2
      {
        OFFSET 11.9445 1.14441e-005 0
        CHANNELS 3 Zrotation Xrotation Yrotation
        JOINT Spine3
        {
          OFFSET 14.7254 4.19617e-005 0
          CHANNELS 3 Zrotation Xrotation Yrotation
          JOINT Spine4
          {
            OFFSET 10.9679 0 0
            CHANNELS 3 Zrotation Xrotation Yrotation
            JOINT RightShoulder
            {
              OFFSET 2.46616 -1.6653 3.69651
              CHANNELS 3 Zrotation Xrotation Yrotation
              JOINT RightArm
              {
                OFFSET 13.0012 0 0
                CHANNELS 3 Zrotation Xrotation Yrotation
                JOINT RightForeArm
                {
                  OFFSET 28.7848 1.52588e-005 0
                  CHANNELS 3 Zrotation Xrotation Yrotation
                  JOINT RightHand
                  {
                    OFFSET 26.5688 1.52588e-005 0
                    CHANNELS 3 Zrotation Xrotation Yrotation
                    End Site
                    {
                      OFFSET 0 0 0
                    }
                  }
                }
              }
            }
            JOINT LeftShoulder
            {
              OFFSET 2.38034 -1.29275 -3.7523
              CHANNELS 3 Zrotation Xrotation Yrotation
              JOINT LeftArm
              {
                OFFSET 16.3182 6.10351e-005 0
                CHANNELS 3 Zrotation Xrotation Yrotation
                JOINT LeftForeArm
                {
                  OFFSET 27.0901 0 0
                  CHANNELS 3 Zrotation Xrotation Yrotation
                  JOINT LeftHand
                  {
                    OFFSET 24.5451 1.52588e-005 0
                    CHANNELS 3 Zrotation Xrotation Yrotation
                    End Site
                    {
                      OFFSET 0 0 0
                    }
                  }
                }
              }
            }
            JOINT Neck
            {
              OFFSET 5.0226 -0.0266342 0
              CHANNELS 3 Zrotation Xrotation Yrotation
              JOINT Head
              {
                OFFSET 6.69364 2.86102e-005 0
                CHANNELS 3 Zrotation Xrotation Yrotation
                End Site
                {
                  OFFSET 0 0 0
                }
              }
            }
          }
        }
      }
    }
  }
}
MOTION
Frames:	15
Frame Time:	0.0416667
-135.375 97.3357 -18.5117 154.736 -88.1404 154.192 -175.326 -0.327588 88.5928 -10.4932 21.622 2.91216 59.5652 2.35334 14.4921 35.3208 -1.87873 -2.83142 176.327 2.93556 88.965 -16.7493 -3.49861 -1.39275 61.1753 3.27889 11.431 33.304 -0.508128 -1.98716 0.0977061 6.96815 -90.1695 12.9376 0.11274 -0.352574 1.26663 0.0971024 -0.357203 -21.2683 0.213485 -0.302396 -1.25562 0.213482 -0.302395 101.443 -53.7149 -83.2443 29.2916 -0.610273 -6.49267 -0.504512 -12.7074 -12.3902 -15.7612 -1.07127 2.7512 -83.7956 -48.0722 87.6288 -29.3156 13.2383 -18.2626 0.692783 21.9281 -1.68802 5.46695 -0.00866887 -3.17544 3.10472 1.52362 -4.16019 -12.4136 1.70435 6.32384 
-135.414 97.3458 -18.4874 155.641 -87.9934 155.156 -175.244 -0.873114 88.7342 -9.77486 21.9446 2.94811 59.6468 2.41102 14.1792 34.9121 -1.78293 -2.09021 176.37 2.79733 88.9459 -16.7725 -1.04188 -1.48587 61.3601 3.69487 14.3261 31.5431 -0.30389 -1.07063 0.075975 6.96937 -90.2024 12.9351 0.0538248 -0.411236 1.26405 0.0356739 -0.413216 -21.2706 0.17493 -0.376049 -1.258 0.174929 -0.37605 101.186 -53.4707 -83.6326 29.2327 -0.354221 -6.0924 -1.04855 -14.5134 -12.6303 -15.1535 -1.05571 2.96107 -83.7017 -48.845 87.8574 -28.6585 13.3939 -18.0741 0.427929 22.0849 -1.60302 6.6902 -0.0770667 -4.213 3.03696 1.61867 -3.34326 -12.6539 1.69742 5.69793 
-135.392 97.3361 -18.438 152.37 -88.0747 151.731 -175.346 -1.21548 88.5637 -8.9934 22.0516 2.9257 59.571 2.44722 14.3647 34.5914 -1.66932 -2.23341 176.196 2.99997 88.662 -16.9771 0.0714459 -1.41416 61.5398 3.93086 15.8873 30.6893 -0.162919 -1.16983 0.0525779 6.94172 -90.1974 12.9903 0.00960317 -0.396076 1.3193 -0.00782809 -0.396123 -21.2154 0.128197 -0.374874 -1.20277 0.128198 -0.374883 101.068 -53.3189 -83.811 29.327 -0.429977 -5.95207 -0.932497 -14.6347 -12.4079 -15.7289 -1.08014 2.83213 -83.6457 -49.1181 87.9728 -28.51 13.2231 -17.9168 0.471913 22.4007 -1.57156 6.58185 -0.129566 -4.87254 2.6146 1.73665 -3.27923 -12.2683 1.79799 5.84296 
-135.347 97.324 -18.4251 152.773 -88.3006 151.977 -175.512 -1.1416 88.3369 -8.78419 21.8345 2.92227 59.3796 2.35691 14.3703 34.6787 -1.69775 -2.23984 176.106 3.32683 88.4582 -17.1859 -0.242558 -1.38935 61.6016 3.91253 15.7061 30.7353 -0.19326 -0.932067 0.0715832 6.93072 -90.177 13.0124 0.0571487 -0.361002 1.34142 0.041215 -0.363175 -21.1934 0.162999 -0.327137 -1.18075 0.163005 -0.327141 101.144 -53.4128 -83.696 29.0115 -1.02363 -5.78043 -0.732303 -14.2053 -12.8414 -15.689 -1.1191 3.14977 -83.7008 -49.0963 87.8861 -28.4133 13.325 -18.0293 0.573442 22.918 -1.83899 6.25281 -0.0951549 -4.43205 3.17296 1.6337 -4.62301 -12.9622 1.75972 7.5669 
-135.354 97.3404 -18.4511 156.701 -88.2383 155.945 -175.462 -1.13151 88.377 -8.97078 21.6354 2.90693 59.4685 2.38117 14.2193 34.6673 -1.69975 -2.141 176.2 3.21081 88.5346 -17.1585 -0.197885 -1.47717 61.6858 3.86581 15.7698 30.6085 -0.17181 -0.95252 0.082042 6.94349 -90.1909 12.9869 0.0712309 -0.390574 1.31585 0.0539702 -0.393328 -21.2189 0.185316 -0.351111 -1.20628 0.185316 -0.351116 101.225 -53.3573 -83.5752 29.0354 -0.861983 -5.94673 -0.792756 -14.4948 -12.5032 -15.5043 -1.04638 2.69794 -83.6507 -49.1546 87.9688 -28.2891 13.5099 -18.1571 0.527366 22.8651 -1.95489 5.90282 -0.0513352 -3.82805 3.24437 1.66284 -4.91614 -13.04 1.80016 7.98093 
-135.386 97.3455 -18.4798 152.832 -87.5501 152.662 -175.003 -1.16008 89.0964 -9.9227 22.5564 3.00655 59.8776 2.56393 14.3887 34.82 -1.74695 -2.19372 176.354 2.25398 89.1567 -16.4973 0.354906 -1.39606 61.2851 3.90952 15.5088 30.6124 -0.205628 -0.616202 0.0425449 7.00038 -90.2597 12.8727 -0.0399382 -0.514437 1.20163 -0.0625423 -0.512189 -21.3327 0.116513 -0.502658 -1.32009 0.116511 -0.502662 101.198 -53.3979 -83.6156 29.0216 -0.759784 -5.8371 -0.917505 -14.5942 -12.773 -15.1492 -1.07875 3.14236 -83.6872 -49.2739 87.9256 -28.1539 13.5171 -18.016 0.402295 20.2718 -2.04585 5.86403 0.03595 -2.61387 3.25698 1.66626 -4.30607 -13.0799 1.76611 7.18232 
-135.384 97.3478 -18.4797 153.754 -87.6042 153.536 -175.031 -1.11796 89.0356 -9.96784 22.452 2.9947 59.904 2.56967 14.341 34.7257 -1.71106 -2.27817 176.357 2.29805 89.1263 -16.4941 0.256242 -1.41659 61.3062 3.8798 15.4545 30.6951 -0.210993 -0.688653 0.0400252 6.99774 -90.2572 12.878 -0.043741 -0.508948 1.20696 -0.0660957 -0.506538 -21.3274 0.11124 -0.498559 -1.31477 0.111233 -0.498572 101.179 -53.3448 -83.6443 29.108 -0.93032 -5.82533 -0.824615 -14.2135 -12.7952 -15.3348 -1.05526 2.85661 -83.6256 -49.1264 88.0043 -28.2924 13.6239 -18.0659 0.448736 20.7195 -2.12969 5.9249 0.032141 -2.68006 3.27212 1.75566 -4.5456 -13.2334 1.84922 7.60904 
-135.383 97.3405 -18.4924 155.783 -87.6282 155.509 -175.019 -1.03974 89.0081 -10.1365 22.0824 2.94306 60.0381 2.6076 14.1358 34.6017 -1.65402 -2.54704 176.357 2.39559 89.0617 -16.7071 0.329891 -1.4589 61.45 3.91683 15.8335 30.6315 -0.162895 -1.08003 0.048472 6.99941 -90.2618 12.8747 -0.0291423 -0.519856 1.20363 -0.0519916 -0.518078 -21.3307 0.128439 -0.50458 -1.31808 0.128438 -0.504586 101.15 -53.2057 -83.6902 29.2616 -1.00002 -5.84499 -0.800191 -13.9873 -12.8233 -15.2661 -1.03669 2.75071 -83.6635 -49.467 87.9825 -27.8877 13.7374 -18.1747 0.333057 20.7089 -2.11452 6.02696 0.0244719 -2.80428 3.24227 1.81915 -4.29199 -13.1744 1.88589 7.44921 
-135.38 97.3593 -18.5138 156.342 -87.6559 156.178 -174.942 -1.09913 89.115 -9.94351 22.2735 2.94045 59.9328 2.56759 14.1865 34.6794 -1.68701 -2.42748 176.455 2.3428 89.2195 -16.5243 0.126918 -1.47982 61.2855 3.87191 15.4018 30.7484 -0.196399 -0.920804 0.050338 6.99739 -90.2736 12.8787 -0.0311155 -0.543353 1.20765 -0.0550079 -0.541468 -21.3266 0.133605 -0.527592 -1.31398 0.133611 -0.527596 101.091 -53.1997 -83.7784 29.3071 -1.2489 -5.80239 -0.656946 -13.4209 -13.0108 -15.3284 -1.09754 3.18625 -83.7039 -49.2905 87.9025 -28.1338 13.6564 -18.1699 0.481462 21.2387 -2.20912 5.85185 0.0260459 -2.7484 2.97199 1.71412 -3.52081 -12.724 1.77053 6.25924 
-135.325 97.3349 -18.5424 160.029 -87.9785 159.554 -175.163 -0.968303 88.7299 -9.73568 21.7391 2.8603 59.8602 2.54738 14.1937 34.5549 -1.63666 -2.57753 176.231 2.88495 88.7875 -16.983 -0.109544 -1.40599 61.5995 3.79315 15.5706 30.3845 -0.152342 -0.802279 0.0663569 6.96915 -90.2497 12.9353 0.012057 -0.50068 1.26429 -0.0099894 -0.500731 -21.2702 0.161969 -0.473908 -1.25751 0.16197 -0.47391 101.056 -53.0376 -83.8348 29.4113 -1.5483 -5.88908 -0.252469 -12.6191 -12.7911 -16.3887 -1.11962 2.78226 -83.6984 -49.4361 87.9258 -28.1569 13.4122 -18.2702 0.766513 22.5558 -2.34205 4.60698 -0.00290974 -2.93391 3.13454 1.80276 -3.67302 -12.9561 1.83695 6.72205 
-135.331 97.3407 -18.5781 158.163 -87.8333 157.802 -175.132 -0.956886 88.8311 -9.90766 22.1645 2.91509 59.7227 2.50363 14.4969 34.9318 -1.75447 -2.71799 176.305 2.71448 88.9252 -16.8567 0.00448676 -1.43051 61.4668 3.86204 15.6651 30.5064 -0.137416 -1.14025 0.0527132 6.97388 -90.2607 12.9258 -0.0203741 -0.518865 1.25472 -0.0431847 -0.517466 -21.2796 0.136506 -0.500993 -1.26699 0.136505 -0.501002 101.062 -53.1025 -83.8245 29.4339 -1.41266 -5.95555 -0.352653 -12.894 -12.7642 -16.1343 -1.1188 2.90743 -83.727 -49.4653 87.8858 -28.0012 13.6145 -18.1957 0.578669 21.8679 -2.32074 5.248 0.0127733 -2.81711 3.3376 1.75482 -3.61338 -13.412 1.77357 6.57992 
-135.334 97.3491 -18.6048 160.176 -87.9069 159.991 -175.043 -0.766429 88.9929 -10.1871 22.0571 2.94642 59.9383 2.58596 14.3617 34.7735 -1.71594 -2.46973 176.388 2.65417 89.1179 -16.6082 -0.0281253 -1.4068 61.3617 3.79852 15.5139 30.7129 -0.192422 -0.906505 0.0685301 6.96757 -90.2824 12.9384 0.00063214 -0.564755 1.2673 -0.0242201 -0.564239 -21.2669 0.170332 -0.538458 -1.25429 0.170328 -0.538463 101.08 -53.0879 -83.7977 29.4961 -1.16209 -5.94145 -0.644792 -13.4324 -12.94 -15.5862 -1.09828 3.04944 -83.7238 -49.395 87.8829 -28.1636 13.5372 -18.2293 0.584437 21.8273 -2.20822 5.17685 0.00218561 -2.96446 3.33368 1.65571 -3.99362 -13.3709 1.6892 7.16736 
-135.297 97.3322 -18.6557 160.634 -88.0672 160.096 -175.274 -0.946164 88.6204 -9.5038 21.6096 2.88915 59.7689 2.49749 14.0521 34.4584 -1.61137 -2.46455 176.231 3.1402 88.711 -17.1538 -0.333662 -1.42139 61.5532 3.82268 15.5428 30.4705 -0.150859 -0.949903 0.0881116 6.95159 -90.2461 12.9706 0.0568624 -0.499019 1.2995 0.0348421 -0.501039 -21.235 0.204199 -0.458864 -1.22234 0.204205 -0.458856 101.233 -53.1452 -83.5667 29.413 -1.18502 -5.99388 -0.625413 -13.5661 -12.961 -15.8542 -1.14129 3.22394 -83.8319 -49.504 87.7299 -28.2201 13.1433 -18.2966 0.962544 23.2298 -2.41996 3.8221 -0.00562759 -2.80098 3.71518 1.69535 -2.6242 -13.8922 1.65157 5.20925 
-135.297 97.3607 -18.6757 161.135 -87.8163 160.828 -175.172 -1.03766 88.8301 -9.77986 22.0753 2.95955 59.7481 2.53456 14.4844 34.702 -1.69865 -2.35636 176.257 2.7118 88.9176 -16.8145 -0.107804 -1.37127 61.3295 3.85081 15.6113 30.6039 -0.174445 -0.918657 0.0672607 6.9756 -90.2575 12.9224 0.0100833 -0.516095 1.25137 -0.0126333 -0.516045 -21.283 0.164727 -0.489208 -1.27037 0.164726 -0.48921 101.1 -53.3654 -83.7616 29.2854 -1.20256 -6.10579 -0.48249 -13.3589 -12.6889 -16.1094 -1.12735 2.98729 -83.6286 -49.3357 88.0222 -28.0687 13.5025 -18.2968 0.593229 21.8353 -2.19708 4.80508 0.00294663 -2.8947 3.43251 1.75805 -3.49463 -13.4231 1.7916 6.18656 
-135.278 97.3557 -18.712 161.844 -87.905 161.345 -175.249 -1.13694 88.6515 -9.36868 21.8713 2.88756 59.5803 2.44106 14.295 34.5947 -1.66394 -2.34341 176.202 2.92354 88.7055 -16.9918 -0.13394 -1.4122 61.3975 3.88926 15.7939 30.6319 -0.173334 -0.973642 0.0908992 6.95332 -90.227 12.9672 0.0715714 -0.462596 1.29612 0.0511458 -0.46531 -21.2385 0.207294 -0.419701 -1.22582 0.207291 -0.419708 101.129 -53.4773 -83.7164 29.1084 -1.12629 -5.96457 -0.649077 -13.6158 -12.8011 -15.2962 -1.10852 3.28657 -83.7789 -49.1645 87.774 -28.1903 13.2185 -18.3267 0.784475 23.1108 -2.18496 3.83787 -0.0158818 -3.00217 2.99013 1.66308 -4.41101 -13.1946 1.75067 7.31799 
